<svg width="82" height="42" viewBox="0 0 82 42" fill="none" xmlns="http://www.w3.org/2000/svg">
<path d="M9.39124 12.3346H12.7178L22.0149 34.0372H17.6213L15.6128 29.075H6.25298L4.29941 34.0372H0L9.39124 12.3346ZM14.2712 25.7617L10.9447 16.9339L7.5632 25.7617H14.2712Z" fill="white"/>
<path d="M23.8662 22.1788H21.0776V19.2513H23.8741V17.0851C23.8741 16.2139 23.9689 15.3741 24.1664 14.5657C24.3639 13.7652 24.6878 13.0588 25.1459 12.4466C25.6041 11.8344 26.2124 11.3557 26.9708 10.9946C27.7291 10.6415 28.6771 10.4609 29.8225 10.4609C30.2333 10.4609 30.573 10.4767 30.8495 10.508C31.126 10.5394 31.4104 10.5944 31.6947 10.6729L31.4498 13.7809C31.2445 13.7181 31.0233 13.671 30.7863 13.6318C30.5493 13.5925 30.2965 13.569 30.0358 13.569C29.5065 13.569 29.0721 13.6711 28.7482 13.8751C28.4243 14.0792 28.1715 14.346 27.9977 14.6678C27.8239 14.9896 27.7054 15.3506 27.6422 15.7352C27.579 16.1198 27.5474 16.4965 27.5474 16.8654V19.2435H30.9522V22.171H27.5474V33.881H23.8662V22.1788Z" fill="white"/>
<path d="M36.3029 19.3241V21.3655H36.397C36.5775 21.0829 36.8207 20.7923 37.111 20.494C37.4091 20.1956 37.77 19.9365 38.1937 19.7009C38.6173 19.4654 39.1037 19.2769 39.6451 19.1199C40.1864 18.9707 40.7905 18.8922 41.4574 18.8922C42.493 18.8922 43.4502 19.0885 44.321 19.4889C45.1919 19.8815 45.945 20.4312 46.5805 21.1221C47.2082 21.8131 47.6946 22.6297 48.0398 23.564C48.385 24.4984 48.5576 25.5034 48.5576 26.587C48.5576 27.6627 48.3929 28.6755 48.0555 29.6256C47.7181 30.5678 47.2396 31.3923 46.6198 32.0989C46 32.7977 45.2468 33.3631 44.3602 33.7792C43.4737 34.1953 42.4773 34.4073 41.3554 34.4073C40.3198 34.4073 39.3705 34.1953 38.5075 33.7635C37.6445 33.3395 36.9776 32.7585 36.5069 32.0283H36.4441V42H32.7881V19.3241H36.3029ZM44.8388 26.587C44.8388 26.0138 44.7525 25.4563 44.5799 24.891C44.4073 24.3335 44.1484 23.831 43.8032 23.3834C43.458 22.9359 43.0187 22.5747 42.493 22.2999C41.9674 22.0251 41.3476 21.8916 40.6336 21.8916C39.9668 21.8916 39.3626 22.0329 38.837 22.3156C38.3113 22.5983 37.8563 22.9673 37.4797 23.4148C37.1031 23.8624 36.8207 24.3728 36.6246 24.9381C36.4284 25.5113 36.3343 26.0766 36.3343 26.6498C36.3343 27.223 36.4284 27.7804 36.6246 28.3458C36.8207 28.9032 37.1031 29.4058 37.4797 29.8533C37.8563 30.3009 38.3113 30.662 38.837 30.9369C39.3626 31.2117 39.9668 31.3451 40.6336 31.3451C41.3476 31.3451 41.9674 31.2038 42.493 30.9212C43.0187 30.6385 43.458 30.2695 43.8032 29.8219C44.1484 29.3743 44.4073 28.864 44.5799 28.2987C44.7525 27.7255 44.8388 27.1601 44.8388 26.587Z" fill="white"/>
<path d="M59.6465 32.1154H59.552C59.1821 32.7683 58.5919 33.3033 57.7813 33.7202C56.9628 34.1371 56.042 34.3495 54.9953 34.3495C54.405 34.3495 53.7912 34.2708 53.1458 34.1213C52.5005 33.9719 51.9102 33.7123 51.3751 33.3583C50.832 33.0043 50.3835 32.5324 50.0293 31.9503C49.6752 31.3681 49.4941 30.6523 49.4941 29.7949C49.4941 28.6936 49.8011 27.8204 50.4228 27.1675C51.0445 26.5146 51.8473 26.0191 52.8232 25.6729C53.799 25.3268 54.8851 25.0987 56.0813 24.9886C57.2776 24.8785 58.4423 24.8234 59.5835 24.8234V24.4537C59.5835 23.5333 59.253 22.8568 58.5919 22.4242C57.9308 21.9837 57.1359 21.7634 56.223 21.7634C55.4517 21.7634 54.7041 21.9286 53.9879 22.2511C53.2717 22.5736 52.6815 22.9748 52.2172 23.4468L50.3205 21.2128C51.1547 20.4419 52.1227 19.8598 53.2088 19.4743C54.3027 19.0889 55.4045 18.8922 56.5299 18.8922C57.8364 18.8922 58.9067 19.0731 59.7566 19.4429C60.5987 19.8126 61.2677 20.2924 61.7635 20.8824C62.2514 21.4724 62.5977 22.1331 62.7866 22.8726C62.9834 23.6041 63.0778 24.3357 63.0778 25.0751V34.0033H59.6543V32.1154H59.6465ZM59.5835 27.2855H58.7571C58.1669 27.2855 57.5452 27.3091 56.892 27.3642C56.2387 27.4114 55.6406 27.5294 55.0897 27.7024C54.5388 27.8755 54.0824 28.1194 53.7125 28.434C53.3426 28.7487 53.1616 29.1813 53.1616 29.7319C53.1616 30.0781 53.2403 30.3691 53.3898 30.6051C53.5393 30.8411 53.7439 31.0299 53.9879 31.1715C54.2319 31.3131 54.5073 31.4153 54.8143 31.4783C55.1212 31.5411 55.4281 31.5727 55.7351 31.5727C57.0021 31.5727 57.9544 31.2344 58.6076 30.5658C59.2608 29.8972 59.5835 28.9768 59.5835 27.8126V27.2855Z" fill="white"/>
<g filter="url(#filter0_b_27_102)">
<path d="M71.3533 0C65.7467 0 61.2046 4.50714 61.2046 10.0706C61.2046 15.6341 65.7467 20.1413 71.3533 20.1413C76.9599 20.1413 81.502 15.6341 81.502 10.0706V0H71.3533Z" fill="#84AD21"/>
</g>
<defs>
<filter id="filter0_b_27_102" x="48.6266" y="-12.578" width="45.4534" height="45.2973" filterUnits="userSpaceOnUse" color-interpolation-filters="sRGB">
<feFlood flood-opacity="0" result="BackgroundImageFix"/>
<feGaussianBlur in="BackgroundImageFix" stdDeviation="6.28901"/>
<feComposite in2="SourceAlpha" operator="in" result="effect1_backgroundBlur_27_102"/>
<feBlend mode="normal" in="SourceGraphic" in2="effect1_backgroundBlur_27_102" result="shape"/>
</filter>
</defs>
</svg>
